# Blender 3.6.3
# www.blender.org
mtllib building.mtl
o Cube
v 7.966380 17.481380 -5.437667
v 9.344089 -0.079638 -6.446950
v 8.391692 17.481380 3.443635
v 9.887955 -0.030588 3.996486
v -9.661124 17.481380 -3.631254
v -11.762764 -0.030588 -4.488419
v -7.204949 17.481380 3.343860
v -8.004813 -0.030588 4.458610
v -10.452795 -0.030588 -0.025924
v 3.500012 -0.030588 -3.996486
v 8.706105 8.676346 -5.941607
v -7.511217 8.725396 3.921042
v 9.083046 8.725396 3.682294
v -10.686896 8.725396 -4.065536
v 4.266980 17.481380 3.443635
v 8.391692 17.481380 0.111282
v 4.941193 -0.030588 3.996486
v -8.568845 17.481380 0.089667
v 3.065294 17.481380 -3.221071
v 9.887955 -0.030588 0.000000
v 3.250017 8.725396 -3.616337
v 9.083046 8.725396 0.032979
v 0.000000 -0.030588 0.000000
v -9.490724 8.725396 0.009307
v 4.566004 8.725396 3.682294
v 3.593357 17.828527 -1.029194
v -9.629340 -0.030588 3.295043
v 8.391692 17.481380 1.777458
v 9.887955 -0.030588 1.998243
v 9.083046 8.725396 1.857636
v 0.000000 -0.030588 1.998243
v -8.482981 8.725396 3.225016
v 3.593357 17.828527 0.969049
v -8.966628 -0.119754 2.369791
v -7.342101 -0.119754 3.533357
v -6.848505 8.636230 2.995790
v -6.542237 17.392214 2.418607
v -7.820269 8.636230 2.299763
v -9.114985 17.481380 -1.770794
v 9.616022 -0.055113 -3.223475
v -11.107780 -0.030588 -2.257171
v 8.179036 17.481380 -2.663193
v 8.894575 8.700871 -2.954314
v 1.750006 -0.030588 -1.998243
v -10.088810 8.725396 -2.028114
v 3.329325 17.654953 -2.125132
v 9.025097 4.298354 -6.194278
v 9.485500 4.347404 3.839390
v -11.224831 4.347404 -4.276978
v -7.758015 4.347404 4.189826
v 3.375014 4.347404 -3.806411
v 9.485500 4.347404 0.016489
v -9.971760 4.347404 -0.008308
v 4.753598 4.347404 3.839390
v -9.056160 4.347404 3.260030
v 9.485500 4.347404 1.927940
v -7.095303 4.258238 3.264573
v -8.393448 4.258238 2.334777
v -10.598295 4.347404 -2.142643
v 9.255299 4.322879 -3.088894
v 10.107491 4.386207 -6.280837
v 10.426482 0.008215 -6.533509
v 10.698416 0.032740 -3.310034
v 10.337692 4.410732 -3.175453
v 10.792319 4.467535 3.839390
v 11.194774 0.089543 3.996486
v 11.194774 0.089543 1.998243
v 11.194774 0.089543 0.000000
v 10.792319 4.467535 0.016489
v 10.792319 4.467535 1.927940
v 10.836672 3.561181 3.425833
v 11.150421 0.148146 3.548303
v 11.150421 0.148146 1.990495
v 11.150421 0.148146 0.432687
v 10.836672 3.561181 0.445542
v 10.836672 3.561181 1.935687
v 10.154835 3.498502 3.425833
v 10.468584 0.085467 3.548303
v 10.468584 0.085467 1.990495
v 10.468584 0.085467 0.432687
v 10.154835 3.498502 0.445542
v 10.154835 3.498502 1.935687
v 10.167610 3.507743 -5.973758
v 10.419319 0.053174 -6.173135
v 10.633895 0.072527 -3.629567
v 10.349257 3.527096 -3.523373
v 9.496783 3.453295 -5.920112
v 9.748492 -0.001274 -6.119489
v 9.963068 0.018079 -3.575922
v 9.678430 3.472648 -3.469727
v -7.358083 13.103388 3.632451
v 8.336243 13.078863 -5.689637
v 8.737370 13.103388 3.562964
v -10.174010 13.103388 -3.848395
v 3.157655 13.103388 -3.418704
v 8.737370 13.103388 0.072130
v -9.029784 13.103388 0.049487
v 4.416492 13.103388 3.562964
v 8.737370 13.103388 1.817547
v -7.843965 13.103388 3.284438
v -6.695371 13.014222 2.707199
v -7.181253 13.014222 2.359185
v 8.536806 13.091125 -2.808753
v -9.601897 13.103388 -1.899454
v -4.131376 -0.030588 -4.242453
v -1.468985 17.481380 3.393747
v -1.531810 -0.030588 4.227548
v -3.297915 17.481380 -3.426162
v -3.718440 8.725396 -3.840936
v -5.226398 -0.030588 -0.012962
v -1.472607 8.725396 3.801668
v -2.487744 17.654953 -0.469764
v -4.814670 -0.030588 2.646643
v -1.805796 17.654953 2.156455
v -2.892830 17.568167 -1.947963
v -4.678887 -0.030588 -2.127707
v -1.502208 4.347404 4.014608
v -3.924908 4.347404 -4.041695
v -3.508178 13.103388 -3.633549
v -1.470795 13.103388 3.597708
v -2.209671 9.266713 3.785977
v -6.754993 9.266713 3.875831
v -6.639729 12.562071 3.658606
v -2.208308 12.562071 3.632454
v 3.807308 12.644623 3.583544
v 3.925486 9.184161 3.677865
v -0.847566 9.184161 3.772220
v -0.846134 12.644623 3.611006
v 8.188990 12.513986 3.579030
v 8.441590 9.314798 3.666229
v 5.140793 9.314798 3.666229
v 5.031538 12.513986 3.579030
v -7.147470 4.765445 4.150096
v -6.947804 8.307355 3.932643
v -2.062412 8.307355 3.836066
v -2.086360 4.765445 4.008340
v 3.990829 8.302867 3.711672
v 4.142213 4.769933 3.838444
v -0.882183 8.302867 3.808004
v -0.906071 4.769933 3.979841
v 8.582622 8.206484 3.700914
v 5.136366 8.206484 3.700914
v 8.889671 4.866316 3.820770
v 5.279490 4.866316 3.820770
vn -0.0012 0.9903 0.1392
vn -0.0013 0.0562 0.9984
vn -0.9549 0.0980 0.2803
vn -0.0000 -1.0000 -0.0000
vn 0.9969 0.0787 -0.0000
vn -0.4065 0.0254 -0.9133
vn -0.3903 0.0267 -0.9203
vn 0.0322 0.0443 -0.9985
vn 0.0322 0.0458 -0.9984
vn 0.9958 0.0915 -0.0000
vn 0.9937 0.0878 -0.0690
vn 0.9940 0.0813 -0.0728
vn -0.0011 -1.0000 0.0044
vn -0.9543 0.1037 0.2801
vn -0.9523 0.1152 0.2825
vn -0.9249 0.1121 0.3634
vn 0.0280 0.0540 0.9981
vn -0.0000 0.0359 0.9994
vn -0.0000 0.0272 0.9996
vn 0.0317 0.9964 0.0784
vn 0.0570 0.9970 -0.0517
vn -0.0223 0.9996 -0.0196
vn 0.0722 0.9974 -0.0000
vn 0.8009 -0.1248 0.5857
vn -0.8134 -0.0099 -0.5816
vn -0.0287 0.9995 0.0100
vn -0.5807 0.0738 0.8108
vn -0.5803 0.0825 0.8102
vn -0.8125 0.0100 -0.5829
vn 0.0455 0.9969 -0.0635
vn 0.8042 -0.1006 0.5857
vn -0.0068 0.9997 -0.0240
vn 0.0050 0.9990 -0.0454
vn -0.0044 -1.0000 0.0034
vn 0.9937 0.0855 -0.0728
vn 0.9944 0.0802 -0.0690
vn -0.0810 0.9967 -0.0019
vn -0.0033 0.0356 0.9994
vn 0.0319 0.0539 0.9980
vn -0.9604 0.1161 0.2535
vn 0.9930 0.0879 -0.0795
vn -0.0915 0.9958 -0.0000
vn -0.3876 0.0269 -0.9214
vn 0.9963 0.0423 -0.0742
vn -0.0837 0.0513 -0.9952
vn 0.0810 -0.9967 0.0008
vn 0.0816 -0.0239 0.9964
vn 0.7974 0.6035 -0.0000
vn 0.9988 0.0489 -0.0000
vn 0.0915 -0.9958 -0.0000
vn -0.0003 0.0037 -1.0000
vn 0.0033 -0.0356 -0.9994
vn 0.0003 -0.0037 1.0000
vn 0.9918 0.0908 0.0894
vn 0.9923 0.0881 -0.0867
vn 0.0810 -0.9967 0.0019
vn 0.7454 0.6632 -0.0679
vn 0.9786 0.0864 -0.1868
vn 0.9973 0.0720 0.0108
vn 0.9936 0.0806 -0.0795
vn -0.0810 0.9967 -0.0008
vn -0.0816 0.0239 -0.9964
vn 0.0837 -0.0513 0.9952
vn 0.9941 0.0853 -0.0664
vn -0.9405 0.1145 0.3198
vn 0.9945 0.0812 -0.0664
vn -0.3964 0.0261 -0.9177
vn 0.0129 0.0653 0.9978
vn 0.0198 0.0372 0.9991
vn 0.0319 0.0428 0.9986
vn -0.0066 0.9951 -0.0989
vn -0.0296 0.9996 0.0044
vn -0.0267 0.9952 -0.0937
vn 0.0197 0.0426 0.9989
vn -0.0013 0.0369 0.9993
vn 0.0129 0.0559 0.9984
vn 0.0129 0.0465 0.9988
vn 0.0197 0.0558 0.9982
vn 0.0059 0.0561 0.9984
vn 0.0129 0.0371 0.9992
vn 0.0059 0.0370 0.9993
vn 0.0129 0.0277 0.9995
vn 0.0239 0.0542 0.9982
vn 0.0239 0.0484 0.9985
vn 0.0197 0.0543 0.9983
vn 0.0239 0.0599 0.9979
vn 0.0239 0.0426 0.9988
vn 0.0239 0.0369 0.9990
vn 0.0280 0.0427 0.9987
vt 1.538691 1.227084
vt 1.746429 1.330953
vt 1.538691 1.330953
vt 0.707738 1.954168
vt 0.915477 1.954168
vt 0.915477 2.161906
vt 0.707738 2.161906
vt 0.707738 -0.538691
vt 0.915477 -0.538691
vt 0.915477 -0.330953
vt 0.707738 -0.330953
vt -0.330953 1.123215
vt 0.084524 1.123215
vt 0.084524 1.330953
vt -0.330953 1.330953
vt 0.707738 1.123215
vt 0.915477 1.123215
vt 0.915477 1.330953
vt 0.707738 1.330953
vt 0.707738 0.084523
vt 0.915477 0.084523
vt 0.915477 0.500000
vt 0.707738 0.500000
vt 0.292262 0.084523
vt 0.500000 0.084523
vt 0.500000 0.500000
vt 0.292262 0.500000
vt 0.292262 -0.123215
vt 0.500000 -0.123215
vt 0.707738 -0.123215
vt 0.915477 -0.123215
vt 0.292262 1.123215
vt 0.500000 1.123215
vt 0.500000 1.330953
vt 0.292262 1.330953
vt 0.292262 0.707738
vt 0.500000 0.707738
vt 0.500000 0.915477
vt 0.292262 0.915477
vt 0.707738 0.707738
vt 0.915477 0.707738
vt 0.915477 0.915477
vt 0.707738 0.915477
vt -0.538691 1.123215
vt -0.538691 1.330953
vt -0.538691 0.707738
vt -0.330953 0.707738
vt -0.330953 0.915477
vt -0.538691 0.915477
vt 0.084524 0.707738
vt 0.084524 0.915477
vt 0.292262 -0.538691
vt 0.500000 -0.538691
vt 0.500000 -0.330953
vt 0.292262 -0.330953
vt 0.292262 -0.954168
vt 0.500000 -0.954168
vt 0.500000 -0.746429
vt 0.292262 -0.746429
vt 0.707738 -0.954168
vt 0.915477 -0.954168
vt 0.915477 -0.746429
vt 0.707738 -0.746429
vt 0.292262 2.161906
vt 0.292262 1.954168
vt 0.915477 1.746429
vt 0.707738 1.746429
vt 1.330953 1.123215
vt 1.330953 1.330953
vt 1.330953 0.707738
vt 1.330953 0.915477
vt 1.538691 0.707738
vt 1.746429 0.707738
vt 1.746429 0.915477
vt 1.538691 0.915477
vt 1.746429 1.123215
vt 1.538691 1.123215
vt 0.707738 -1.058037
vt 0.292262 -1.161906
vt 0.500000 -1.161906
vt 0.500000 2.161906
vt -0.746429 1.123215
vt -0.746429 1.330953
vt 0.084524 -0.954168
vt 1.538691 0.500000
vt 1.746429 0.500000
vt 1.330953 0.500000
vt -0.330953 0.500000
vt 0.084524 0.500000
vt -0.538691 0.500000
vt 0.084524 -0.746429
vt 0.084524 -0.538691
vt 0.084524 2.161906
vt 0.084524 -1.161906
vt 0.292262 1.746429
vt 0.084524 1.746429
vt 0.084524 1.954168
vt 0.084524 -0.330953
vt 0.084524 -0.123215
vt 0.084524 0.084523
vt 0.500000 1.746429
vt 0.500000 1.954168
vt -0.746429 0.500000
vt -0.746429 0.707738
vt -0.746429 0.915477
s 0
usemtl Material
f 114/1/1 7/2/1 106/3/1
f 120/4/2 106/5/2 7/6/2 91/7/2
f 104/8/3 39/9/3 5/10/3 94/11/3
f 31/12/4 29/13/4 4/14/4 17/15/4
f 99/16/5 28/17/5 3/18/5 93/19/5
f 95/20/6 19/21/6 1/22/6 92/23/6
f 51/24/7 21/25/7 11/26/7 47/27/7
f 118/28/8 109/29/8 21/25/8 51/24/8
f 119/30/9 108/31/9 19/21/9 95/20/9
f 56/32/10 30/33/10 13/34/10 48/35/10
f 60/36/11 43/37/11 22/38/11 52/39/11
f 103/40/12 42/41/12 16/42/12 96/43/12
f 113/44/4 31/12/4 17/15/4 107/45/4
f 116/46/4 44/47/4 23/48/4 110/49/4
f 44/47/13 40/50/13 20/51/13 23/48/13
f 59/52/14 45/53/14 14/54/14 49/55/14
f 55/56/15 32/57/15 24/58/15 53/59/15
f 100/60/16 7/61/16 18/62/16 97/63/16
f 50/64/17 117/65/17 136/65/17 133/64/17
f 48/35/18 13/34/18 141/34/18 143/35/18
f 93/19/19 3/18/19 15/66/19 98/67/19
f 28/17/20 33/68/20 15/69/20 3/18/20
f 42/41/21 46/70/21 26/71/21 16/42/21
f 115/72/22 39/73/22 18/74/22 112/75/22
f 16/42/23 26/71/23 33/68/23 28/17/23
f 100/60/24 32/57/24 38/57/24 102/60/24
f 91/7/25 7/6/25 37/6/25 101/7/25
f 110/49/4 23/48/4 31/12/4 113/44/4
f 52/39/10 22/38/10 30/33/10 56/32/10
f 96/43/5 16/42/5 28/17/5 99/16/5
f 23/48/4 20/51/4 29/13/4 31/12/4
f 112/75/26 18/74/26 7/76/26 114/77/26
f 101/78/27 37/61/27 102/60/27
f 57/79/28 36/80/28 38/57/28 58/56/28
f 50/64/29 12/81/29 36/81/29 57/64/29
f 27/82/30 8/83/30 35/83/30 34/82/30
f 55/56/31 27/84/31 34/84/31 58/56/31
f 108/85/32 5/86/32 39/73/32 115/72/32
f 1/22/33 19/87/33 46/70/33 42/41/33
f 53/59/14 24/58/14 45/53/14 59/52/14
f 10/88/34 2/89/34 40/50/34 44/47/34
f 105/90/4 10/88/4 44/47/4 116/46/4
f 92/23/35 1/22/35 42/41/35 103/40/35
f 47/27/36 11/26/36 43/37/36 60/36/36
f 97/63/3 18/62/3 39/9/3 104/8/3
f 9/91/14 53/59/14 59/52/14 41/92/14
f 32/57/31 55/56/31 58/56/31 38/57/31
f 8/93/29 50/64/29 57/64/29 35/93/29
f 35/94/28 57/79/28 58/56/28 34/84/28
f 4/14/18 48/35/18 54/95/18 17/96/18
f 107/97/39 117/65/39 50/64/39 8/93/39
f 27/84/40 55/56/40 53/59/40 9/91/40
f 41/92/14 59/52/14 49/55/14 6/98/14
f 40/50/41 60/36/41 52/39/41 20/51/41
f 105/99/8 118/28/8 51/24/8 10/100/8
f 10/100/43 51/24/43 47/27/43 2/89/43
f 75/39/50 76/32/50 82/32/50 81/39/50
f 76/32/50 71/35/50 77/35/50 82/32/50
f 83/27/56 86/36/56 90/36/56 87/27/56
f 63/50/57 62/89/57 84/89/57 85/50/57
f 24/58/3 97/63/3 104/8/3 45/53/3
f 11/26/64 92/23/64 103/40/64 43/37/64
f 36/80/27 101/78/27 102/60/27 38/57/27
f 22/38/5 96/43/5 99/16/5 30/33/5
f 12/81/25 91/7/25 101/7/25 36/81/25
f 7/61/24 100/60/24 102/60/24 37/61/24
f 98/67/19 25/101/19 131/101/19 132/67/19
f 32/57/65 100/60/65 97/63/65 24/58/65
f 43/37/66 103/40/66 96/43/66 22/38/66
f 109/29/9 119/30/9 95/20/9 21/25/9
f 21/25/67 95/20/67 92/23/67 11/26/67
f 30/33/5 99/16/5 93/19/5 13/34/5
f 45/53/3 104/8/3 94/11/3 14/54/3
f 91/7/68 12/81/68 122/81/68 123/7/68
f 111/102/69 25/101/69 126/101/69 127/102/69
f 14/54/9 94/11/9 119/30/9 109/29/9
f 6/98/8 49/55/8 118/28/8 105/99/8
f 17/96/70 54/95/70 117/65/70 107/97/70
f 6/103/4 105/90/4 116/46/4 41/104/4
f 19/87/71 108/85/71 115/72/71 46/70/71
f 26/71/72 112/75/72 114/77/72 33/68/72
f 9/105/4 110/49/4 113/44/4 27/82/4
f 46/70/73 115/72/73 112/75/73 26/71/73
f 25/101/74 111/102/74 139/102/74 137/101/74
f 41/104/4 116/46/4 110/49/4 9/105/4
f 27/82/4 113/44/4 107/45/4 8/83/4
f 94/11/9 5/10/9 108/31/9 119/30/9
f 49/55/8 14/54/8 109/29/8 118/28/8
f 98/67/75 15/66/75 106/5/75 120/4/75
f 33/68/1 114/1/1 106/3/1 15/69/1
f 111/102/77 120/4/77 124/4/77 121/102/77
f 12/81/78 111/102/78 121/102/78 122/81/78
f 120/4/79 91/7/79 123/7/79 124/4/79
f 98/67/81 120/4/81 128/4/81 125/67/81
f 25/101/82 98/67/82 125/67/82 126/101/82
f 120/4/77 111/102/77 127/102/77 128/4/77
f 25/101/19 13/34/19 130/34/19 131/101/19
f 13/34/19 93/19/19 129/19/19 130/34/19
f 93/19/19 98/67/19 132/67/19 129/19/19
f 117/65/84 111/102/84 135/102/84 136/65/84
f 111/102/85 12/81/85 134/81/85 135/102/85
f 12/81/86 50/64/86 133/64/86 134/81/86
f 111/102/84 117/65/84 140/65/84 139/102/84
f 54/95/88 25/101/88 137/101/88 138/95/88
f 117/65/89 54/95/89 138/95/89 140/65/89
f 13/34/18 25/101/18 142/101/18 141/34/18
f 54/95/18 48/35/18 143/35/18 144/95/18
f 25/101/18 54/95/18 144/95/18 142/101/18
usemtl Material.001
f 48/35/38 4/14/38 66/14/38 65/35/38
f 2/89/45 47/27/45 61/27/45 62/89/45
f 40/50/46 2/89/46 62/89/46 63/50/46
f 60/36/47 40/50/47 63/50/47 64/36/47
f 66/14/48 67/13/48 73/13/48 72/14/48
f 29/13/50 20/51/50 68/51/50 67/13/50
f 20/51/51 52/39/51 69/39/51 68/51/51
f 4/14/50 29/13/50 67/13/50 66/14/50
f 71/35/52 72/14/52 78/14/52 77/35/52
f 74/51/53 75/39/53 81/39/53 80/51/53
f 67/13/48 68/51/48 74/51/48 73/13/48
f 68/51/54 69/39/54 75/39/54 74/51/54
f 65/35/55 66/14/55 72/14/55 71/35/55
f 80/51/10 81/39/10 82/32/10 79/13/10
f 79/13/10 82/32/10 77/35/10 78/14/10
f 72/14/42 73/13/42 79/13/42 78/14/42
f 73/13/42 74/51/42 80/51/42 79/13/42
f 64/36/58 63/50/58 85/50/58 86/36/58
f 62/89/59 61/27/59 83/27/59 84/89/59
f 88/89/60 87/27/60 90/36/60 89/50/60
f 85/50/61 84/89/61 88/89/61 89/50/61
f 86/36/62 85/50/62 89/50/62 90/36/62
f 84/89/63 83/27/63 87/27/63 88/89/63
f 121/102/76 124/4/76 123/7/76 122/81/76
f 126/101/80 125/67/80 128/4/80 127/102/80
f 130/34/19 129/19/19 132/67/19 131/101/19
f 136/65/83 135/102/83 134/81/83 133/64/83
f 138/95/87 137/101/87 139/102/87 140/65/87
f 143/35/18 141/34/18 142/101/18 144/95/18
usemtl Material.002
f 47/27/37 60/36/37 64/36/37 61/27/37
f 61/27/44 64/36/44 86/36/44 83/27/44
usemtl Material.003
f 56/32/42 48/35/42 65/35/42 70/32/42
f 69/39/49 70/32/49 76/32/49 75/39/49
f 52/39/42 56/32/42 70/32/42 69/39/42
f 70/32/49 65/35/49 71/35/49 76/32/49
