# Blender 3.6.3
# www.blender.org
mtllib person.mtl
o Cube
v 0.325281 1.020697 -0.424391
v 0.557141 -0.010388 -0.726894
v 0.325281 1.020697 0.424391
v 0.557141 -0.010388 0.726894
v -0.325281 1.020697 -0.424391
v -0.557141 -0.010388 -0.726894
v -0.325281 1.020697 0.424391
v -0.557141 -0.010388 0.726894
v -0.623517 -0.010388 -0.000000
v 0.000000 -0.010388 -0.813494
v 0.422125 0.576800 -0.550741
v -0.422125 0.576800 0.550741
v 0.422125 0.576800 0.550741
v -0.422125 0.576800 -0.550741
v 0.000000 1.020697 0.594460
v 0.455634 1.020697 -0.000000
v 0.000000 -0.010388 0.813494
v -0.455634 1.020697 -0.000000
v 0.000000 1.020697 -0.594460
v 0.623517 -0.010388 -0.000000
v 0.000000 0.576800 -0.672622
v 0.515542 0.576800 -0.000000
v 0.000000 -0.010388 -0.000000
v -0.515542 0.576800 -0.000000
v 0.000000 0.576800 0.672622
v 0.483461 1.379693 0.351251
v -0.184662 1.379693 0.568340
v -0.597594 1.379693 0.000000
v -0.184662 1.379693 -0.568340
v 0.483461 1.379693 -0.351251
v 0.184662 1.977291 0.568340
v -0.483461 1.977291 0.351251
v -0.483461 1.977291 -0.351251
v 0.184662 1.977291 -0.568340
v 0.597594 1.977291 0.000000
v 0.000000 2.346624 0.000000
v 0.241730 1.195026 0.175625
v -0.092331 1.195026 0.284170
v -0.298797 1.195026 0.000000
v -0.092331 1.195026 -0.284170
v 0.241730 1.195026 -0.175625
vn -0.3526 0.2464 0.9027
vn -0.9550 0.1998 -0.2192
vn -0.0000 -1.0000 -0.0000
vn 0.9550 0.1998 0.2192
vn 0.3526 0.2464 -0.9027
vn 0.2001 0.2767 -0.9399
vn -0.2001 0.2767 -0.9399
vn -0.3526 0.2464 -0.9027
vn 0.9683 0.2185 0.1211
vn 0.9683 0.2185 -0.1211
vn 0.9550 0.1998 -0.2192
vn -0.9683 0.2185 -0.1211
vn -0.9683 0.2185 0.1211
vn -0.9550 0.1998 0.2192
vn -0.2001 0.2767 0.9399
vn 0.2001 0.2767 0.9399
vn 0.3526 0.2464 0.9027
vn -0.5832 0.7635 0.2772
vn -0.2782 0.7997 0.5321
vn 0.1997 0.8584 0.4725
vn 0.7186 0.6594 0.2207
vn 0.6318 0.7752 -0.0000
vn -0.5832 0.7635 -0.2772
vn 0.7186 0.6594 -0.2207
vn 0.1997 0.8584 -0.4725
vn -0.2782 0.7997 -0.5321
vn -0.4911 -0.7947 -0.3568
vn 0.9822 -0.1876 -0.0000
vn 0.3035 -0.1876 0.9342
vn -0.7946 -0.1876 0.5774
vn -0.7946 -0.1876 -0.5774
vn 0.3035 -0.1876 -0.9342
vn 0.7946 0.1876 0.5774
vn -0.3035 0.1876 0.9342
vn -0.9822 0.1876 -0.0000
vn -0.3035 0.1876 -0.9342
vn 0.7946 0.1876 -0.5774
vn 0.4911 0.7947 0.3568
vn -0.1876 0.7947 0.5774
vn -0.6071 0.7947 -0.0000
vn -0.1876 0.7947 -0.5774
vn 0.4911 0.7947 -0.3568
vn 0.1876 -0.7947 -0.5774
vn 0.6071 -0.7947 -0.0000
vn 0.1876 -0.7947 0.5774
vn -0.4911 -0.7947 0.3568
vt 0.500000 0.875000
vt 0.625000 0.875000
vt 0.625000 1.000000
vt 0.500000 1.000000
vt 0.500000 0.125000
vt 0.625000 0.125000
vt 0.625000 0.250000
vt 0.500000 0.250000
vt 0.250000 0.625000
vt 0.375000 0.625000
vt 0.375000 0.750000
vt 0.250000 0.750000
vt 0.500000 0.625000
vt 0.625000 0.625000
vt 0.625000 0.750000
vt 0.500000 0.750000
vt 0.500000 0.375000
vt 0.625000 0.375000
vt 0.625000 0.500000
vt 0.500000 0.500000
vt 0.375000 0.375000
vt 0.375000 0.500000
vt 0.375000 0.250000
vt 0.125000 0.625000
vt 0.125000 0.750000
vt 0.125000 0.500000
vt 0.250000 0.500000
vt 0.375000 0.125000
vt 0.375000 0.000000
vt 0.500000 0.000000
vt 0.625000 0.000000
vt 0.375000 0.875000
vt 0.375000 1.000000
vt 0.000000 0.000000
vt 0.636364 0.157461
vt 0.818182 0.157461
vt 0.272728 0.157461
vt 0.454546 0.157461
vt 0.363637 0.314921
vt 0.090910 0.157461
vt 0.181819 0.314921
vt 1.000000 0.157461
vt 0.909091 0.314921
vt 0.727273 0.314921
vt 0.545455 0.314921
vt 0.000000 0.314921
vt 0.272728 0.472382
vt 0.090910 0.472382
vt 0.818182 0.472382
vt 0.636364 0.472382
vt 0.454546 0.472382
s 0
usemtl Material
f 25/1/1 15/2/1 7/3/1 12/4/1
f 24/5/2 18/6/2 5/7/2 14/8/2
f 23/9/3 20/10/3 4/11/3 17/12/3
f 22/13/4 16/14/4 3/15/4 13/16/4
f 21/17/5 19/18/5 1/19/5 11/20/5
f 10/21/6 21/17/6 11/20/6 2/22/6
f 6/23/7 14/8/7 21/17/7 10/21/7
f 14/8/8 5/7/8 19/18/8 21/17/8
f 20/10/9 22/13/9 13/16/9 4/11/9
f 2/22/10 11/20/10 22/13/10 20/10/10
f 11/20/11 1/19/11 16/14/11 22/13/11
f 9/24/3 23/9/3 17/12/3 8/25/3
f 6/26/3 10/27/3 23/9/3 9/24/3
f 10/27/3 2/22/3 20/10/3 23/9/3
f 9/28/12 24/5/12 14/8/12 6/23/12
f 8/29/13 12/30/13 24/5/13 9/28/13
f 12/30/14 7/31/14 18/6/14 24/5/14
f 17/32/15 25/1/15 12/4/15 8/33/15
f 4/11/16 13/16/16 25/1/16 17/32/16
f 13/16/17 3/15/17 15/2/17 25/1/17
f 18/6/18 7/31/18 38/34/18 39/34/18
f 7/31/19 15/2/19 38/34/19
f 15/2/20 3/15/20 37/34/20 38/34/20
f 3/15/21 16/14/21 37/34/21
f 41/34/22 37/34/22 16/14/22
f 5/7/23 18/6/23 39/34/23 40/34/23
f 16/14/24 1/19/24 41/34/24
f 19/18/25 40/34/25 41/34/25 1/19/25
f 19/18/26 5/7/26 40/34/26
f 29/35/27 40/34/27 39/34/27 28/36/27
f 26/37/28 30/38/28 35/39/28
f 27/40/29 26/37/29 31/41/29
f 28/36/30 27/42/30 32/43/30
f 29/35/31 28/36/31 33/44/31
f 30/38/32 29/35/32 34/45/32
f 26/37/33 35/39/33 31/41/33
f 27/40/34 31/41/34 32/46/34
f 28/36/35 32/43/35 33/44/35
f 29/35/36 33/44/36 34/45/36
f 30/38/37 34/45/37 35/39/37
f 31/41/38 35/39/38 36/47/38
f 32/46/39 31/41/39 36/48/39
f 33/44/40 32/43/40 36/49/40
f 34/45/41 33/44/41 36/50/41
f 35/39/42 34/45/42 36/51/42
f 41/34/43 40/34/43 29/35/43 30/38/43
f 26/37/44 37/34/44 41/34/44 30/38/44
f 38/34/45 37/34/45 26/37/45 27/40/45
f 28/36/46 39/34/46 38/34/46 27/40/46
